<mxfile host="app.diagrams.net" modified="2020-04-19T08:19:48.877Z" agent="5.0 (Windows NT 10.0; Win64; x64) AppleWebKit/537.36 (KHTML, like Gecko) Chrome/80.0.3987.163 Safari/537.36" etag="G8R_gXptNEFwAMbROzlO" version="12.9.14" type="github">
  <diagram id="Fqww_011EZnbAC1PvDVR" name="Page-1">
    <mxGraphModel dx="2903" dy="2167" grid="1" gridSize="10" guides="1" tooltips="1" connect="1" arrows="1" fold="1" page="1" pageScale="1" pageWidth="827" pageHeight="1169" math="0" shadow="0">
      <root>
        <object label="" id="0">
          <mxCell />
        </object>
        <mxCell id="1" parent="0" />
        <mxCell id="l0feJrEmPDSzG2131Ykb-13" value="" style="edgeStyle=orthogonalEdgeStyle;rounded=0;orthogonalLoop=1;jettySize=auto;html=1;strokeWidth=3;fontStyle=1" parent="1" target="pG-HJHoj7xEh51rD5Gyk-65" edge="1">
          <mxGeometry relative="1" as="geometry">
            <mxPoint x="10" y="-40" as="sourcePoint" />
          </mxGeometry>
        </mxCell>
        <mxCell id="uFdm-P2WvE3M775zOYVF-7" value="" style="rounded=0;whiteSpace=wrap;html=1;fillColor=none;gradientColor=none;strokeWidth=3;fontStyle=1" parent="1" vertex="1">
          <mxGeometry x="129.0000000000001" y="-60" width="120" height="40" as="geometry" />
        </mxCell>
        <mxCell id="pG-HJHoj7xEh51rD5Gyk-8" value="" style="group;strokeWidth=3;fontStyle=1" parent="1" vertex="1" connectable="0">
          <mxGeometry x="320" y="-920" width="80" height="80" as="geometry" />
        </mxCell>
        <mxCell id="pG-HJHoj7xEh51rD5Gyk-7" value="" style="whiteSpace=wrap;html=1;aspect=fixed;strokeWidth=3;fontStyle=1" parent="pG-HJHoj7xEh51rD5Gyk-8" vertex="1">
          <mxGeometry width="80" height="80" as="geometry" />
        </mxCell>
        <mxCell id="pG-HJHoj7xEh51rD5Gyk-1" value="" style="whiteSpace=wrap;html=1;aspect=fixed;strokeWidth=3;fontStyle=1" parent="pG-HJHoj7xEh51rD5Gyk-8" vertex="1">
          <mxGeometry x="10" y="10" width="60" height="60" as="geometry" />
        </mxCell>
        <mxCell id="pG-HJHoj7xEh51rD5Gyk-20" value="&lt;font size=&quot;1&quot;&gt;&lt;span style=&quot;font-size: 18px&quot;&gt;X0&lt;/span&gt;&lt;/font&gt;" style="text;html=1;strokeColor=none;fillColor=none;align=center;verticalAlign=middle;whiteSpace=wrap;rounded=0;strokeWidth=3;fontStyle=1" parent="pG-HJHoj7xEh51rD5Gyk-8" vertex="1">
          <mxGeometry x="20" y="30" width="40" height="20" as="geometry" />
        </mxCell>
        <mxCell id="pG-HJHoj7xEh51rD5Gyk-9" value="" style="endArrow=none;html=1;entryX=0.5;entryY=1;entryDx=0;entryDy=0;exitX=0.5;exitY=0;exitDx=0;exitDy=0;strokeWidth=3;fontStyle=1" parent="1" source="pG-HJHoj7xEh51rD5Gyk-10" target="pG-HJHoj7xEh51rD5Gyk-7" edge="1">
          <mxGeometry width="50" height="50" relative="1" as="geometry">
            <mxPoint x="360" y="-800" as="sourcePoint" />
            <mxPoint x="359.65999999999997" y="-840" as="targetPoint" />
            <Array as="points">
              <mxPoint x="359.65999999999997" y="-820" />
            </Array>
          </mxGeometry>
        </mxCell>
        <mxCell id="pG-HJHoj7xEh51rD5Gyk-10" value="" style="whiteSpace=wrap;html=1;aspect=fixed;strokeWidth=3;fontStyle=1" parent="1" vertex="1">
          <mxGeometry x="320.0000000000001" y="-760" width="80" height="80" as="geometry" />
        </mxCell>
        <mxCell id="pG-HJHoj7xEh51rD5Gyk-11" value="" style="endArrow=none;html=1;strokeWidth=3;fontStyle=1" parent="1" edge="1">
          <mxGeometry width="50" height="50" relative="1" as="geometry">
            <mxPoint x="330" y="-800" as="sourcePoint" />
            <mxPoint x="390" y="-800" as="targetPoint" />
          </mxGeometry>
        </mxCell>
        <mxCell id="pG-HJHoj7xEh51rD5Gyk-12" value="" style="endArrow=none;html=1;entryX=0.5;entryY=1;entryDx=0;entryDy=0;exitX=0.5;exitY=0;exitDx=0;exitDy=0;strokeWidth=3;fontStyle=1" parent="1" source="pG-HJHoj7xEh51rD5Gyk-13" edge="1">
          <mxGeometry width="50" height="50" relative="1" as="geometry">
            <mxPoint x="360" y="-640" as="sourcePoint" />
            <mxPoint x="360" y="-680" as="targetPoint" />
            <Array as="points">
              <mxPoint x="359.65999999999997" y="-660" />
            </Array>
          </mxGeometry>
        </mxCell>
        <mxCell id="pG-HJHoj7xEh51rD5Gyk-13" value="" style="whiteSpace=wrap;html=1;aspect=fixed;strokeWidth=3;fontStyle=1" parent="1" vertex="1">
          <mxGeometry x="320.0000000000001" y="-600" width="80" height="80" as="geometry" />
        </mxCell>
        <mxCell id="pG-HJHoj7xEh51rD5Gyk-14" value="" style="endArrow=none;html=1;strokeWidth=3;fontStyle=1" parent="1" edge="1">
          <mxGeometry width="50" height="50" relative="1" as="geometry">
            <mxPoint x="330" y="-640" as="sourcePoint" />
            <mxPoint x="390" y="-640" as="targetPoint" />
          </mxGeometry>
        </mxCell>
        <mxCell id="pG-HJHoj7xEh51rD5Gyk-19" value="&lt;font style=&quot;font-size: 16px&quot;&gt;F1 active&lt;/font&gt;" style="text;html=1;strokeColor=none;fillColor=none;align=left;verticalAlign=middle;whiteSpace=wrap;rounded=0;strokeWidth=3;fontStyle=1" parent="1" vertex="1">
          <mxGeometry x="412" y="-810" width="148" height="20" as="geometry" />
        </mxCell>
        <mxCell id="pG-HJHoj7xEh51rD5Gyk-21" value="&lt;font size=&quot;1&quot;&gt;&lt;span style=&quot;font-size: 18px&quot;&gt;X1&lt;/span&gt;&lt;/font&gt;" style="text;html=1;strokeColor=none;fillColor=none;align=center;verticalAlign=middle;whiteSpace=wrap;rounded=0;strokeWidth=3;fontStyle=1" parent="1" vertex="1">
          <mxGeometry x="340" y="-730" width="40" height="20" as="geometry" />
        </mxCell>
        <mxCell id="pG-HJHoj7xEh51rD5Gyk-22" value="&lt;font size=&quot;1&quot;&gt;&lt;span style=&quot;font-size: 18px&quot;&gt;X2&lt;/span&gt;&lt;/font&gt;" style="text;html=1;strokeColor=none;fillColor=none;align=center;verticalAlign=middle;whiteSpace=wrap;rounded=0;strokeWidth=3;fontStyle=1" parent="1" vertex="1">
          <mxGeometry x="340" y="-570" width="40" height="20" as="geometry" />
        </mxCell>
        <mxCell id="pG-HJHoj7xEh51rD5Gyk-28" value="" style="endArrow=none;html=1;strokeWidth=3;exitX=0.5;exitY=0;exitDx=0;exitDy=0;fontStyle=1" parent="1" source="pG-HJHoj7xEh51rD5Gyk-7" edge="1">
          <mxGeometry width="50" height="50" relative="1" as="geometry">
            <mxPoint x="362" y="-930" as="sourcePoint" />
            <mxPoint x="360" y="-960" as="targetPoint" />
          </mxGeometry>
        </mxCell>
        <mxCell id="pG-HJHoj7xEh51rD5Gyk-30" value="" style="endArrow=none;html=1;strokeWidth=3;fontStyle=1" parent="1" edge="1">
          <mxGeometry width="50" height="50" relative="1" as="geometry">
            <mxPoint x="-440" y="-960" as="sourcePoint" />
            <mxPoint x="360" y="-960" as="targetPoint" />
          </mxGeometry>
        </mxCell>
        <mxCell id="pG-HJHoj7xEh51rD5Gyk-32" value="&lt;font style=&quot;font-size: 16px&quot;&gt;Convoyeur 1&lt;/font&gt;" style="text;html=1;strokeColor=none;fillColor=none;align=left;verticalAlign=middle;whiteSpace=wrap;rounded=0;strokeWidth=3;fontStyle=1" parent="1" vertex="1">
          <mxGeometry x="460" y="-730" width="236" height="20" as="geometry" />
        </mxCell>
        <mxCell id="pG-HJHoj7xEh51rD5Gyk-33" value="" style="endArrow=none;html=1;strokeWidth=3;fontStyle=1" parent="1" edge="1">
          <mxGeometry width="50" height="50" relative="1" as="geometry">
            <mxPoint x="400" y="-720" as="sourcePoint" />
            <mxPoint x="450" y="-720" as="targetPoint" />
          </mxGeometry>
        </mxCell>
        <mxCell id="pG-HJHoj7xEh51rD5Gyk-35" value="&lt;font style=&quot;font-size: 16px&quot;&gt;CaptEntreRobot&lt;br&gt;&lt;/font&gt;" style="text;html=1;strokeColor=none;fillColor=none;align=left;verticalAlign=middle;whiteSpace=wrap;rounded=0;strokeWidth=3;fontStyle=1" parent="1" vertex="1">
          <mxGeometry x="413" y="-650" width="236" height="20" as="geometry" />
        </mxCell>
        <mxCell id="pG-HJHoj7xEh51rD5Gyk-36" value="" style="endArrow=none;html=1;strokeWidth=3;fontStyle=1" parent="1" edge="1">
          <mxGeometry width="50" height="50" relative="1" as="geometry">
            <mxPoint x="400" y="-560.34" as="sourcePoint" />
            <mxPoint x="450" y="-560.34" as="targetPoint" />
          </mxGeometry>
        </mxCell>
        <mxCell id="pG-HJHoj7xEh51rD5Gyk-37" value="&lt;font style=&quot;font-size: 16px&quot;&gt;Usinage&lt;/font&gt;" style="text;html=1;strokeColor=none;fillColor=none;align=left;verticalAlign=middle;whiteSpace=wrap;rounded=0;strokeWidth=3;fontStyle=1" parent="1" vertex="1">
          <mxGeometry x="460" y="-570" width="80" height="20" as="geometry" />
        </mxCell>
        <mxCell id="pG-HJHoj7xEh51rD5Gyk-39" value="" style="endArrow=none;html=1;entryX=0.5;entryY=1;entryDx=0;entryDy=0;exitX=0.5;exitY=0;exitDx=0;exitDy=0;strokeWidth=3;fontStyle=1" parent="1" source="pG-HJHoj7xEh51rD5Gyk-40" edge="1">
          <mxGeometry width="50" height="50" relative="1" as="geometry">
            <mxPoint x="360" y="-480" as="sourcePoint" />
            <mxPoint x="360" y="-520.0000000000001" as="targetPoint" />
            <Array as="points">
              <mxPoint x="359.65999999999997" y="-500" />
            </Array>
          </mxGeometry>
        </mxCell>
        <mxCell id="pG-HJHoj7xEh51rD5Gyk-40" value="" style="whiteSpace=wrap;html=1;aspect=fixed;strokeWidth=3;fontStyle=1" parent="1" vertex="1">
          <mxGeometry x="320.0000000000001" y="-440" width="80" height="80" as="geometry" />
        </mxCell>
        <mxCell id="pG-HJHoj7xEh51rD5Gyk-41" value="" style="endArrow=none;html=1;strokeWidth=3;fontStyle=1" parent="1" edge="1">
          <mxGeometry width="50" height="50" relative="1" as="geometry">
            <mxPoint x="330" y="-480.0000000000001" as="sourcePoint" />
            <mxPoint x="390" y="-480.0000000000001" as="targetPoint" />
          </mxGeometry>
        </mxCell>
        <mxCell id="pG-HJHoj7xEh51rD5Gyk-42" value="&lt;font size=&quot;1&quot;&gt;&lt;span style=&quot;font-size: 18px&quot;&gt;X4&lt;/span&gt;&lt;/font&gt;" style="text;html=1;strokeColor=none;fillColor=none;align=center;verticalAlign=middle;whiteSpace=wrap;rounded=0;strokeWidth=3;fontStyle=1" parent="1" vertex="1">
          <mxGeometry x="340" y="-410" width="40" height="20" as="geometry" />
        </mxCell>
        <mxCell id="pG-HJHoj7xEh51rD5Gyk-43" value="&lt;font style=&quot;font-size: 16px&quot;&gt;CaptSortieRobot&lt;br&gt;&lt;/font&gt;" style="text;html=1;strokeColor=none;fillColor=none;align=left;verticalAlign=middle;whiteSpace=wrap;rounded=0;strokeWidth=3;fontStyle=1" parent="1" vertex="1">
          <mxGeometry x="413" y="-490" width="236" height="20" as="geometry" />
        </mxCell>
        <mxCell id="pG-HJHoj7xEh51rD5Gyk-44" value="" style="endArrow=none;html=1;strokeWidth=3;fontStyle=1" parent="1" edge="1">
          <mxGeometry width="50" height="50" relative="1" as="geometry">
            <mxPoint x="400" y="-400.34000000000003" as="sourcePoint" />
            <mxPoint x="450" y="-400.34000000000003" as="targetPoint" />
          </mxGeometry>
        </mxCell>
        <mxCell id="pG-HJHoj7xEh51rD5Gyk-45" value="&lt;font style=&quot;font-size: 16px&quot;&gt;Convoyeur 2&lt;/font&gt;" style="text;html=1;strokeColor=none;fillColor=none;align=left;verticalAlign=middle;whiteSpace=wrap;rounded=0;strokeWidth=3;fontStyle=1" parent="1" vertex="1">
          <mxGeometry x="460" y="-410" width="110" height="20" as="geometry" />
        </mxCell>
        <mxCell id="pG-HJHoj7xEh51rD5Gyk-56" value="" style="endArrow=none;html=1;strokeWidth=3;entryX=0.5;entryY=1;entryDx=0;entryDy=0;fontStyle=1" parent="1" target="pG-HJHoj7xEh51rD5Gyk-47" edge="1">
          <mxGeometry width="50" height="50" relative="1" as="geometry">
            <mxPoint x="360" y="-160" as="sourcePoint" />
            <mxPoint x="370" y="-180" as="targetPoint" />
          </mxGeometry>
        </mxCell>
        <mxCell id="pG-HJHoj7xEh51rD5Gyk-58" value="" style="endArrow=none;html=1;strokeWidth=3;fontStyle=1" parent="1" edge="1">
          <mxGeometry width="50" height="50" relative="1" as="geometry">
            <mxPoint x="-200" y="-160" as="sourcePoint" />
            <mxPoint x="880" y="-160" as="targetPoint" />
          </mxGeometry>
        </mxCell>
        <mxCell id="pG-HJHoj7xEh51rD5Gyk-59" value="" style="endArrow=none;html=1;entryX=0.5;entryY=1;entryDx=0;entryDy=0;exitX=0.5;exitY=0;exitDx=0;exitDy=0;strokeWidth=3;fontStyle=1" parent="1" edge="1">
          <mxGeometry width="50" height="50" relative="1" as="geometry">
            <mxPoint x="-80" y="-80" as="sourcePoint" />
            <mxPoint x="-80" y="-160" as="targetPoint" />
            <Array as="points">
              <mxPoint x="-80.34000000000003" y="-140" />
            </Array>
          </mxGeometry>
        </mxCell>
        <mxCell id="pG-HJHoj7xEh51rD5Gyk-60" value="" style="whiteSpace=wrap;html=1;aspect=fixed;strokeWidth=3;fontStyle=1" parent="1" vertex="1">
          <mxGeometry x="-120.99999999999989" y="-80" width="80" height="80" as="geometry" />
        </mxCell>
        <mxCell id="pG-HJHoj7xEh51rD5Gyk-61" value="" style="endArrow=none;html=1;strokeWidth=3;fontStyle=1" parent="1" edge="1">
          <mxGeometry width="50" height="50" relative="1" as="geometry">
            <mxPoint x="-111" y="-120" as="sourcePoint" />
            <mxPoint x="-51" y="-120" as="targetPoint" />
          </mxGeometry>
        </mxCell>
        <mxCell id="pG-HJHoj7xEh51rD5Gyk-62" value="" style="endArrow=none;html=1;entryX=0.5;entryY=1;entryDx=0;entryDy=0;exitX=0.5;exitY=0;exitDx=0;exitDy=0;strokeWidth=3;fontStyle=1" parent="1" edge="1">
          <mxGeometry width="50" height="50" relative="1" as="geometry">
            <mxPoint x="-80" y="80" as="sourcePoint" />
            <mxPoint x="-80" as="targetPoint" />
            <Array as="points">
              <mxPoint x="-80.34000000000003" y="20" />
            </Array>
          </mxGeometry>
        </mxCell>
        <mxCell id="pG-HJHoj7xEh51rD5Gyk-63" value="" style="whiteSpace=wrap;html=1;aspect=fixed;strokeWidth=3;fontStyle=1" parent="1" vertex="1">
          <mxGeometry x="-120.99999999999989" y="80" width="80" height="80" as="geometry" />
        </mxCell>
        <mxCell id="pG-HJHoj7xEh51rD5Gyk-64" value="" style="endArrow=none;html=1;strokeWidth=3;fontStyle=1" parent="1" edge="1">
          <mxGeometry width="50" height="50" relative="1" as="geometry">
            <mxPoint x="-111" y="40" as="sourcePoint" />
            <mxPoint x="-51" y="40" as="targetPoint" />
          </mxGeometry>
        </mxCell>
        <mxCell id="pG-HJHoj7xEh51rD5Gyk-65" value="&lt;font size=&quot;1&quot;&gt;&lt;span style=&quot;font-size: 18px&quot;&gt;X10&lt;/span&gt;&lt;/font&gt;" style="text;html=1;strokeColor=none;fillColor=none;align=center;verticalAlign=middle;whiteSpace=wrap;rounded=0;strokeWidth=3;fontStyle=1" parent="1" vertex="1">
          <mxGeometry x="-101" y="-50" width="40" height="20" as="geometry" />
        </mxCell>
        <mxCell id="pG-HJHoj7xEh51rD5Gyk-66" value="&lt;font size=&quot;1&quot;&gt;&lt;span style=&quot;font-size: 18px&quot;&gt;X11&lt;/span&gt;&lt;/font&gt;" style="text;html=1;strokeColor=none;fillColor=none;align=center;verticalAlign=middle;whiteSpace=wrap;rounded=0;strokeWidth=3;fontStyle=1" parent="1" vertex="1">
          <mxGeometry x="-101" y="110" width="40" height="20" as="geometry" />
        </mxCell>
        <mxCell id="pG-HJHoj7xEh51rD5Gyk-67" value="&lt;span style=&quot;font-size: 16px&quot;&gt;(Pièce verte)&lt;/span&gt;" style="text;html=1;strokeColor=none;fillColor=none;align=left;verticalAlign=middle;whiteSpace=wrap;rounded=0;strokeWidth=3;fontStyle=1" parent="1" vertex="1">
          <mxGeometry x="-16" y="-130" width="205" height="20" as="geometry" />
        </mxCell>
        <mxCell id="pG-HJHoj7xEh51rD5Gyk-70" value="" style="endArrow=none;html=1;entryX=0.5;entryY=1;entryDx=0;entryDy=0;exitX=0.5;exitY=0;exitDx=0;exitDy=0;strokeWidth=3;fontStyle=1" parent="1" source="pG-HJHoj7xEh51rD5Gyk-71" edge="1">
          <mxGeometry width="50" height="50" relative="1" as="geometry">
            <mxPoint x="760" y="-120" as="sourcePoint" />
            <mxPoint x="760" y="-160" as="targetPoint" />
            <Array as="points">
              <mxPoint x="759.66" y="-140" />
            </Array>
          </mxGeometry>
        </mxCell>
        <mxCell id="pG-HJHoj7xEh51rD5Gyk-71" value="" style="whiteSpace=wrap;html=1;aspect=fixed;strokeWidth=3;fontStyle=1" parent="1" vertex="1">
          <mxGeometry x="720.0000000000001" y="-80" width="80" height="80" as="geometry" />
        </mxCell>
        <mxCell id="pG-HJHoj7xEh51rD5Gyk-72" value="" style="endArrow=none;html=1;strokeWidth=3;fontStyle=1" parent="1" edge="1">
          <mxGeometry width="50" height="50" relative="1" as="geometry">
            <mxPoint x="730" y="-120" as="sourcePoint" />
            <mxPoint x="790" y="-120" as="targetPoint" />
          </mxGeometry>
        </mxCell>
        <mxCell id="pG-HJHoj7xEh51rD5Gyk-73" value="" style="endArrow=none;html=1;entryX=0.5;entryY=1;entryDx=0;entryDy=0;exitX=0.5;exitY=0;exitDx=0;exitDy=0;strokeWidth=3;fontStyle=1" parent="1" source="pG-HJHoj7xEh51rD5Gyk-74" edge="1">
          <mxGeometry width="50" height="50" relative="1" as="geometry">
            <mxPoint x="760" y="40" as="sourcePoint" />
            <mxPoint x="760" as="targetPoint" />
            <Array as="points">
              <mxPoint x="759.66" y="20" />
            </Array>
          </mxGeometry>
        </mxCell>
        <mxCell id="pG-HJHoj7xEh51rD5Gyk-74" value="" style="whiteSpace=wrap;html=1;aspect=fixed;strokeWidth=3;fontStyle=1" parent="1" vertex="1">
          <mxGeometry x="720.0000000000001" y="80" width="80" height="80" as="geometry" />
        </mxCell>
        <mxCell id="pG-HJHoj7xEh51rD5Gyk-75" value="" style="endArrow=none;html=1;strokeWidth=3;fontStyle=1" parent="1" edge="1">
          <mxGeometry width="50" height="50" relative="1" as="geometry">
            <mxPoint x="730" y="40" as="sourcePoint" />
            <mxPoint x="790" y="40" as="targetPoint" />
          </mxGeometry>
        </mxCell>
        <mxCell id="pG-HJHoj7xEh51rD5Gyk-76" value="&lt;font size=&quot;1&quot;&gt;&lt;span style=&quot;font-size: 18px&quot;&gt;X20&lt;/span&gt;&lt;/font&gt;" style="text;html=1;strokeColor=none;fillColor=none;align=center;verticalAlign=middle;whiteSpace=wrap;rounded=0;strokeWidth=3;fontStyle=1" parent="1" vertex="1">
          <mxGeometry x="740" y="-50" width="40" height="20" as="geometry" />
        </mxCell>
        <mxCell id="pG-HJHoj7xEh51rD5Gyk-77" value="&lt;font size=&quot;1&quot;&gt;&lt;span style=&quot;font-size: 18px&quot;&gt;X21&lt;/span&gt;&lt;/font&gt;" style="text;html=1;strokeColor=none;fillColor=none;align=center;verticalAlign=middle;whiteSpace=wrap;rounded=0;strokeWidth=3;fontStyle=1" parent="1" vertex="1">
          <mxGeometry x="740" y="110" width="40" height="20" as="geometry" />
        </mxCell>
        <mxCell id="pG-HJHoj7xEh51rD5Gyk-78" value="&lt;font style=&quot;font-size: 16px&quot;&gt;(Pièce bleue )&lt;br&gt;&lt;/font&gt;" style="text;html=1;strokeColor=none;fillColor=none;align=left;verticalAlign=middle;whiteSpace=wrap;rounded=0;strokeWidth=3;fontStyle=1" parent="1" vertex="1">
          <mxGeometry x="813" y="-130" width="236" height="20" as="geometry" />
        </mxCell>
        <mxCell id="pG-HJHoj7xEh51rD5Gyk-81" value="" style="endArrow=none;html=1;strokeWidth=3;fontStyle=1" parent="1" edge="1">
          <mxGeometry width="50" height="50" relative="1" as="geometry">
            <mxPoint x="-440" y="880" as="sourcePoint" />
            <mxPoint x="-440" y="-960" as="targetPoint" />
          </mxGeometry>
        </mxCell>
        <mxCell id="pG-HJHoj7xEh51rD5Gyk-82" value="" style="endArrow=none;html=1;strokeWidth=3;fontStyle=1" parent="1" edge="1">
          <mxGeometry width="50" height="50" relative="1" as="geometry">
            <mxPoint x="-460" y="-400" as="sourcePoint" />
            <mxPoint x="-440" y="-440" as="targetPoint" />
          </mxGeometry>
        </mxCell>
        <mxCell id="pG-HJHoj7xEh51rD5Gyk-83" value="" style="endArrow=none;html=1;strokeWidth=3;fontStyle=1" parent="1" edge="1">
          <mxGeometry width="50" height="50" relative="1" as="geometry">
            <mxPoint x="-420" y="-400" as="sourcePoint" />
            <mxPoint x="-440" y="-440" as="targetPoint" />
          </mxGeometry>
        </mxCell>
        <mxCell id="uFdm-P2WvE3M775zOYVF-3" value="" style="rounded=0;whiteSpace=wrap;html=1;fillColor=none;gradientColor=none;strokeWidth=3;fontStyle=1" parent="1" vertex="1">
          <mxGeometry x="448.0000000000001" y="-420" width="120" height="40" as="geometry" />
        </mxCell>
        <mxCell id="uFdm-P2WvE3M775zOYVF-4" value="" style="rounded=0;whiteSpace=wrap;html=1;fillColor=none;gradientColor=none;strokeWidth=3;fontStyle=1" parent="1" vertex="1">
          <mxGeometry x="448" y="-580" width="92" height="40" as="geometry" />
        </mxCell>
        <mxCell id="uFdm-P2WvE3M775zOYVF-5" value="" style="rounded=0;whiteSpace=wrap;html=1;fillColor=none;gradientColor=none;strokeWidth=3;fontStyle=1" parent="1" vertex="1">
          <mxGeometry x="448.0000000000001" y="-740" width="120" height="40" as="geometry" />
        </mxCell>
        <mxCell id="uFdm-P2WvE3M775zOYVF-6" value="&lt;font style=&quot;font-size: 16px&quot;&gt;Convoyeur 3&lt;/font&gt;" style="text;html=1;strokeColor=none;fillColor=none;align=left;verticalAlign=middle;whiteSpace=wrap;rounded=0;strokeWidth=3;fontStyle=1" parent="1" vertex="1">
          <mxGeometry x="140" y="-50" width="100" height="20" as="geometry" />
        </mxCell>
        <mxCell id="uFdm-P2WvE3M775zOYVF-8" value="" style="rounded=0;whiteSpace=wrap;html=1;fillColor=none;gradientColor=none;strokeWidth=3;fontStyle=1" parent="1" vertex="1">
          <mxGeometry x="249" y="-60" width="120" height="40" as="geometry" />
        </mxCell>
        <mxCell id="uFdm-P2WvE3M775zOYVF-9" value="" style="endArrow=none;html=1;strokeWidth=3;entryX=0.5;entryY=1;entryDx=0;entryDy=0;fontStyle=1" parent="1" edge="1">
          <mxGeometry width="50" height="50" relative="1" as="geometry">
            <mxPoint x="-80" y="200" as="sourcePoint" />
            <mxPoint x="-80" y="160" as="targetPoint" />
          </mxGeometry>
        </mxCell>
        <mxCell id="uFdm-P2WvE3M775zOYVF-13" value="" style="endArrow=none;html=1;strokeWidth=3;fontStyle=1" parent="1" edge="1">
          <mxGeometry width="50" height="50" relative="1" as="geometry">
            <mxPoint x="-320" y="200" as="sourcePoint" />
            <mxPoint x="240" y="200" as="targetPoint" />
          </mxGeometry>
        </mxCell>
        <mxCell id="uFdm-P2WvE3M775zOYVF-15" value="" style="endArrow=none;html=1;entryX=0.5;entryY=1;entryDx=0;entryDy=0;exitX=0.5;exitY=0;exitDx=0;exitDy=0;strokeWidth=3;fontStyle=1" parent="1" edge="1">
          <mxGeometry width="50" height="50" relative="1" as="geometry">
            <mxPoint x="-279.9999999999998" y="280" as="sourcePoint" />
            <mxPoint x="-279.9999999999998" y="200" as="targetPoint" />
            <Array as="points">
              <mxPoint x="-280.34000000000003" y="220" />
            </Array>
          </mxGeometry>
        </mxCell>
        <mxCell id="uFdm-P2WvE3M775zOYVF-16" value="" style="whiteSpace=wrap;html=1;aspect=fixed;strokeWidth=3;fontStyle=1" parent="1" vertex="1">
          <mxGeometry x="-320.9999999999999" y="280" width="80" height="80" as="geometry" />
        </mxCell>
        <mxCell id="uFdm-P2WvE3M775zOYVF-17" value="" style="endArrow=none;html=1;strokeWidth=3;fontStyle=1" parent="1" edge="1">
          <mxGeometry width="50" height="50" relative="1" as="geometry">
            <mxPoint x="-311" y="240" as="sourcePoint" />
            <mxPoint x="-251" y="240" as="targetPoint" />
          </mxGeometry>
        </mxCell>
        <mxCell id="uFdm-P2WvE3M775zOYVF-18" value="" style="endArrow=none;html=1;entryX=0.5;entryY=1;entryDx=0;entryDy=0;exitX=0.5;exitY=0;exitDx=0;exitDy=0;strokeWidth=3;fontStyle=1" parent="1" edge="1">
          <mxGeometry width="50" height="50" relative="1" as="geometry">
            <mxPoint x="-279.9999999999998" y="440" as="sourcePoint" />
            <mxPoint x="-279.9999999999998" y="360" as="targetPoint" />
            <Array as="points">
              <mxPoint x="-280.34000000000003" y="380" />
            </Array>
          </mxGeometry>
        </mxCell>
        <mxCell id="uFdm-P2WvE3M775zOYVF-19" value="" style="endArrow=none;html=1;strokeWidth=3;fontStyle=1" parent="1" edge="1">
          <mxGeometry width="50" height="50" relative="1" as="geometry">
            <mxPoint x="-311" y="400" as="sourcePoint" />
            <mxPoint x="-251" y="400" as="targetPoint" />
          </mxGeometry>
        </mxCell>
        <mxCell id="uFdm-P2WvE3M775zOYVF-20" value="&lt;font size=&quot;1&quot;&gt;&lt;span style=&quot;font-size: 18px&quot;&gt;X12&lt;/span&gt;&lt;/font&gt;" style="text;html=1;strokeColor=none;fillColor=none;align=center;verticalAlign=middle;whiteSpace=wrap;rounded=0;strokeWidth=3;fontStyle=1" parent="1" vertex="1">
          <mxGeometry x="-301" y="310" width="40" height="20" as="geometry" />
        </mxCell>
        <mxCell id="uFdm-P2WvE3M775zOYVF-21" value="&lt;span style=&quot;font-family: monospace ; font-size: 0px&quot;&gt;%3CmxGraphModel%3E%3Croot%3E%3CmxCell%20id%3D%220%22%2F%3E%3CmxCell%20id%3D%221%22%20parent%3D%220%22%2F%3E%3CmxCell%20id%3D%222%22%20value%3D%22%26lt%3Bspan%20style%3D%26quot%3Bfont-size%3A%2016px%26quot%3B%26gt%3BCompteurPiecevert%20%2B%2B%26lt%3B%2Fspan%26gt%3B%22%20style%3D%22text%3Bhtml%3D1%3BstrokeColor%3Dnone%3BfillColor%3Dnone%3Balign%3Dleft%3BverticalAlign%3Dmiddle%3BwhiteSpace%3Dwrap%3Brounded%3D0%3B%22%20vertex%3D%221%22%20parent%3D%221%22%3E%3CmxGeometry%20x%3D%22-10%22%20y%3D%22310%22%20width%3D%22170%22%20height%3D%2220%22%20as%3D%22geometry%22%2F%3E%3C%2FmxCell%3E%3C%2Froot%3E%3C%2FmxGraphModel%3E&lt;/span&gt;" style="text;html=1;strokeColor=none;fillColor=none;align=left;verticalAlign=middle;whiteSpace=wrap;rounded=0;strokeWidth=3;fontStyle=1" parent="1" vertex="1">
          <mxGeometry x="-228" y="230" width="188" height="20" as="geometry" />
        </mxCell>
        <mxCell id="uFdm-P2WvE3M775zOYVF-22" value="&lt;font style=&quot;font-size: 16px&quot;&gt;CaptBoiteVerte&lt;br&gt;&lt;/font&gt;" style="text;html=1;strokeColor=none;fillColor=none;align=left;verticalAlign=middle;whiteSpace=wrap;rounded=0;strokeWidth=3;fontStyle=1" parent="1" vertex="1">
          <mxGeometry x="-228" y="390" width="128" height="20" as="geometry" />
        </mxCell>
        <mxCell id="uFdm-P2WvE3M775zOYVF-26" value="" style="endArrow=none;html=1;strokeWidth=3;fontStyle=1" parent="1" edge="1">
          <mxGeometry width="50" height="50" relative="1" as="geometry">
            <mxPoint x="200" y="600" as="sourcePoint" />
            <mxPoint x="199.5" y="200" as="targetPoint" />
            <Array as="points">
              <mxPoint x="199.15999999999997" y="380" />
            </Array>
          </mxGeometry>
        </mxCell>
        <mxCell id="uFdm-P2WvE3M775zOYVF-31" value="" style="endArrow=none;html=1;strokeWidth=3;fontStyle=1" parent="1" edge="1">
          <mxGeometry width="50" height="50" relative="1" as="geometry">
            <mxPoint x="-321" y="599.17" as="sourcePoint" />
            <mxPoint x="239" y="599.17" as="targetPoint" />
          </mxGeometry>
        </mxCell>
        <mxCell id="uFdm-P2WvE3M775zOYVF-46" value="" style="endArrow=none;html=1;strokeWidth=3;fontStyle=1" parent="1" edge="1">
          <mxGeometry width="50" height="50" relative="1" as="geometry">
            <mxPoint x="-160" y="640" as="sourcePoint" />
            <mxPoint x="960" y="640" as="targetPoint" />
          </mxGeometry>
        </mxCell>
        <mxCell id="uFdm-P2WvE3M775zOYVF-48" value="" style="endArrow=none;html=1;strokeWidth=3;entryX=0.5;entryY=1;entryDx=0;entryDy=0;fontStyle=1" parent="1" edge="1">
          <mxGeometry width="50" height="50" relative="1" as="geometry">
            <mxPoint x="359" y="680" as="sourcePoint" />
            <mxPoint x="359" y="640" as="targetPoint" />
          </mxGeometry>
        </mxCell>
        <mxCell id="uFdm-P2WvE3M775zOYVF-52" value="" style="endArrow=none;html=1;strokeWidth=3;entryX=0.5;entryY=1;entryDx=0;entryDy=0;fontStyle=1" parent="1" edge="1">
          <mxGeometry width="50" height="50" relative="1" as="geometry">
            <mxPoint x="760" y="200" as="sourcePoint" />
            <mxPoint x="760" y="160" as="targetPoint" />
          </mxGeometry>
        </mxCell>
        <mxCell id="uFdm-P2WvE3M775zOYVF-53" value="" style="endArrow=none;html=1;strokeWidth=3;fontStyle=1" parent="1" edge="1">
          <mxGeometry width="50" height="50" relative="1" as="geometry">
            <mxPoint x="560" y="200" as="sourcePoint" />
            <mxPoint x="1120" y="200" as="targetPoint" />
          </mxGeometry>
        </mxCell>
        <mxCell id="uFdm-P2WvE3M775zOYVF-54" value="" style="endArrow=none;html=1;entryX=0.5;entryY=1;entryDx=0;entryDy=0;exitX=0.5;exitY=0;exitDx=0;exitDy=0;strokeWidth=3;fontStyle=1" parent="1" edge="1">
          <mxGeometry width="50" height="50" relative="1" as="geometry">
            <mxPoint x="600" y="280" as="sourcePoint" />
            <mxPoint x="600" y="200" as="targetPoint" />
            <Array as="points">
              <mxPoint x="599.66" y="220" />
            </Array>
          </mxGeometry>
        </mxCell>
        <mxCell id="uFdm-P2WvE3M775zOYVF-55" value="" style="whiteSpace=wrap;html=1;aspect=fixed;strokeWidth=3;fontStyle=1" parent="1" vertex="1">
          <mxGeometry x="559.0000000000001" y="280" width="80" height="80" as="geometry" />
        </mxCell>
        <mxCell id="uFdm-P2WvE3M775zOYVF-56" value="" style="endArrow=none;html=1;strokeWidth=3;fontStyle=1" parent="1" edge="1">
          <mxGeometry width="50" height="50" relative="1" as="geometry">
            <mxPoint x="569" y="240" as="sourcePoint" />
            <mxPoint x="629" y="240" as="targetPoint" />
          </mxGeometry>
        </mxCell>
        <mxCell id="uFdm-P2WvE3M775zOYVF-57" value="" style="endArrow=none;html=1;entryX=0.5;entryY=1;entryDx=0;entryDy=0;exitX=0.5;exitY=0;exitDx=0;exitDy=0;strokeWidth=3;fontStyle=1" parent="1" edge="1">
          <mxGeometry width="50" height="50" relative="1" as="geometry">
            <mxPoint x="600" y="440" as="sourcePoint" />
            <mxPoint x="600" y="360" as="targetPoint" />
            <Array as="points">
              <mxPoint x="599.66" y="380" />
            </Array>
          </mxGeometry>
        </mxCell>
        <mxCell id="uFdm-P2WvE3M775zOYVF-58" value="" style="endArrow=none;html=1;strokeWidth=3;fontStyle=1" parent="1" edge="1">
          <mxGeometry width="50" height="50" relative="1" as="geometry">
            <mxPoint x="569" y="400" as="sourcePoint" />
            <mxPoint x="629" y="400" as="targetPoint" />
          </mxGeometry>
        </mxCell>
        <mxCell id="uFdm-P2WvE3M775zOYVF-59" value="&lt;font size=&quot;1&quot;&gt;&lt;span style=&quot;font-size: 18px&quot;&gt;X22&lt;/span&gt;&lt;/font&gt;" style="text;html=1;strokeColor=none;fillColor=none;align=center;verticalAlign=middle;whiteSpace=wrap;rounded=0;strokeWidth=3;fontStyle=1" parent="1" vertex="1">
          <mxGeometry x="579" y="310" width="40" height="20" as="geometry" />
        </mxCell>
        <mxCell id="uFdm-P2WvE3M775zOYVF-65" value="" style="endArrow=none;html=1;strokeWidth=3;fontStyle=1" parent="1" edge="1">
          <mxGeometry width="50" height="50" relative="1" as="geometry">
            <mxPoint x="1080" y="600" as="sourcePoint" />
            <mxPoint x="1080.34" y="200" as="targetPoint" />
            <Array as="points">
              <mxPoint x="1080" y="380" />
            </Array>
          </mxGeometry>
        </mxCell>
        <mxCell id="uFdm-P2WvE3M775zOYVF-66" value="" style="endArrow=none;html=1;strokeWidth=3;fontStyle=1" parent="1" edge="1">
          <mxGeometry width="50" height="50" relative="1" as="geometry">
            <mxPoint x="1049" y="399.58" as="sourcePoint" />
            <mxPoint x="1109" y="399.58" as="targetPoint" />
          </mxGeometry>
        </mxCell>
        <mxCell id="uFdm-P2WvE3M775zOYVF-70" value="" style="endArrow=none;html=1;strokeWidth=3;fontStyle=1" parent="1" edge="1">
          <mxGeometry width="50" height="50" relative="1" as="geometry">
            <mxPoint x="559" y="600" as="sourcePoint" />
            <mxPoint x="1120" y="600" as="targetPoint" />
          </mxGeometry>
        </mxCell>
        <mxCell id="uFdm-P2WvE3M775zOYVF-75" value="&lt;font style=&quot;font-size: 16px&quot;&gt;&lt;br&gt;&lt;/font&gt;" style="text;html=1;strokeColor=none;fillColor=none;align=left;verticalAlign=middle;whiteSpace=wrap;rounded=0;strokeWidth=3;fontStyle=1" parent="1" vertex="1">
          <mxGeometry x="612" y="550" width="106" height="20" as="geometry" />
        </mxCell>
        <mxCell id="Xxqxk4Q40JCaoxF1TCv4-9" value="&lt;font style=&quot;font-size: 16px&quot;&gt;EjecteurVert&lt;/font&gt;" style="text;html=1;strokeColor=none;fillColor=none;align=left;verticalAlign=middle;whiteSpace=wrap;rounded=0;strokeWidth=3;fontStyle=1" parent="1" vertex="1">
          <mxGeometry x="259" y="-50" width="100" height="20" as="geometry" />
        </mxCell>
        <mxCell id="Xxqxk4Q40JCaoxF1TCv4-20" value="" style="rounded=0;whiteSpace=wrap;html=1;fillColor=none;gradientColor=none;strokeWidth=3;fontStyle=1" parent="1" vertex="1">
          <mxGeometry x="-200" y="300" width="160" height="40" as="geometry" />
        </mxCell>
        <mxCell id="Xxqxk4Q40JCaoxF1TCv4-21" value="&lt;font style=&quot;font-size: 16px&quot;&gt;TableRouleauxVert&lt;/font&gt;" style="text;html=1;strokeColor=none;fillColor=none;align=left;verticalAlign=middle;whiteSpace=wrap;rounded=0;strokeWidth=3;fontStyle=1" parent="1" vertex="1">
          <mxGeometry x="-193" y="310" width="140" height="20" as="geometry" />
        </mxCell>
        <mxCell id="Xxqxk4Q40JCaoxF1TCv4-22" value="" style="endArrow=none;html=1;strokeWidth=3;entryX=0;entryY=0.5;entryDx=0;entryDy=0;exitX=1;exitY=0.5;exitDx=0;exitDy=0;fontStyle=1" parent="1" source="uFdm-P2WvE3M775zOYVF-16" target="Xxqxk4Q40JCaoxF1TCv4-20" edge="1">
          <mxGeometry width="50" height="50" relative="1" as="geometry">
            <mxPoint x="-241" y="319.49999999999983" as="sourcePoint" />
            <mxPoint x="-200" y="319" as="targetPoint" />
          </mxGeometry>
        </mxCell>
        <mxCell id="Xxqxk4Q40JCaoxF1TCv4-41" value="" style="endArrow=none;html=1;strokeWidth=3;entryX=0;entryY=0.5;entryDx=0;entryDy=0;fontStyle=1" parent="1" edge="1">
          <mxGeometry width="50" height="50" relative="1" as="geometry">
            <mxPoint x="639" y="319.5" as="sourcePoint" />
            <mxPoint x="680" y="320" as="targetPoint" />
          </mxGeometry>
        </mxCell>
        <mxCell id="Xxqxk4Q40JCaoxF1TCv4-61" value="" style="whiteSpace=wrap;html=1;aspect=fixed;strokeWidth=3;fontStyle=1" parent="1" vertex="1">
          <mxGeometry x="559" y="440" width="80" height="80" as="geometry" />
        </mxCell>
        <mxCell id="Xxqxk4Q40JCaoxF1TCv4-62" value="&lt;font size=&quot;1&quot;&gt;&lt;span style=&quot;font-size: 18px&quot;&gt;X23&lt;/span&gt;&lt;/font&gt;" style="text;html=1;strokeColor=none;fillColor=none;align=center;verticalAlign=middle;whiteSpace=wrap;rounded=0;strokeWidth=3;fontStyle=1" parent="1" vertex="1">
          <mxGeometry x="579" y="470" width="40" height="20" as="geometry" />
        </mxCell>
        <mxCell id="Xxqxk4Q40JCaoxF1TCv4-63" value="" style="rounded=0;whiteSpace=wrap;html=1;fillColor=none;gradientColor=none;strokeWidth=3;fontStyle=1" parent="1" vertex="1">
          <mxGeometry x="680" y="460" width="170" height="40" as="geometry" />
        </mxCell>
        <mxCell id="Xxqxk4Q40JCaoxF1TCv4-64" value="&lt;font style=&quot;font-size: 16px&quot;&gt;EmetteurBoiteBleue&lt;/font&gt;" style="text;html=1;strokeColor=none;fillColor=none;align=left;verticalAlign=middle;whiteSpace=wrap;rounded=0;strokeWidth=3;fontStyle=1" parent="1" vertex="1">
          <mxGeometry x="687" y="470" width="140" height="20" as="geometry" />
        </mxCell>
        <mxCell id="Xxqxk4Q40JCaoxF1TCv4-65" value="" style="endArrow=none;html=1;strokeWidth=3;entryX=0;entryY=0.5;entryDx=0;entryDy=0;exitX=1;exitY=0.5;exitDx=0;exitDy=0;fontStyle=1" parent="1" source="Xxqxk4Q40JCaoxF1TCv4-61" target="Xxqxk4Q40JCaoxF1TCv4-63" edge="1">
          <mxGeometry width="50" height="50" relative="1" as="geometry">
            <mxPoint x="639" y="479.5" as="sourcePoint" />
            <mxPoint x="680" y="479" as="targetPoint" />
          </mxGeometry>
        </mxCell>
        <mxCell id="Xxqxk4Q40JCaoxF1TCv4-66" value="" style="endArrow=none;html=1;strokeWidth=3;fontStyle=1" parent="1" edge="1">
          <mxGeometry width="50" height="50" relative="1" as="geometry">
            <mxPoint x="569" y="560" as="sourcePoint" />
            <mxPoint x="629" y="560" as="targetPoint" />
          </mxGeometry>
        </mxCell>
        <mxCell id="Xxqxk4Q40JCaoxF1TCv4-67" value="&lt;font style=&quot;font-size: 16px&quot;&gt;%T3s&lt;br&gt;&lt;/font&gt;" style="text;html=1;strokeColor=none;fillColor=none;align=left;verticalAlign=middle;whiteSpace=wrap;rounded=0;strokeWidth=3;fontStyle=1" parent="1" vertex="1">
          <mxGeometry x="649" y="550" width="52" height="20" as="geometry" />
        </mxCell>
        <mxCell id="pG-HJHoj7xEh51rD5Gyk-54" value="" style="group;strokeWidth=3;fontStyle=1" parent="1" vertex="1" connectable="0">
          <mxGeometry x="320.0000000000001" y="-340" width="495.9999999999999" height="140" as="geometry" />
        </mxCell>
        <mxCell id="pG-HJHoj7xEh51rD5Gyk-46" value="" style="endArrow=none;html=1;entryX=0.5;entryY=1;entryDx=0;entryDy=0;exitX=0.5;exitY=0;exitDx=0;exitDy=0;strokeWidth=3;fontStyle=1" parent="pG-HJHoj7xEh51rD5Gyk-54" source="pG-HJHoj7xEh51rD5Gyk-47" edge="1">
          <mxGeometry width="50" height="50" relative="1" as="geometry">
            <mxPoint x="39.999999999999886" y="20" as="sourcePoint" />
            <mxPoint x="39.999999999999886" y="-20" as="targetPoint" />
            <Array as="points">
              <mxPoint x="39.659999999999854" />
            </Array>
          </mxGeometry>
        </mxCell>
        <mxCell id="pG-HJHoj7xEh51rD5Gyk-47" value="" style="whiteSpace=wrap;html=1;aspect=fixed;strokeWidth=3;fontStyle=1" parent="pG-HJHoj7xEh51rD5Gyk-54" vertex="1">
          <mxGeometry y="60" width="80" height="80" as="geometry" />
        </mxCell>
        <mxCell id="pG-HJHoj7xEh51rD5Gyk-48" value="" style="endArrow=none;html=1;strokeWidth=3;fontStyle=1" parent="pG-HJHoj7xEh51rD5Gyk-54" edge="1">
          <mxGeometry width="50" height="50" relative="1" as="geometry">
            <mxPoint x="9.999999999999886" y="20" as="sourcePoint" />
            <mxPoint x="69.99999999999989" y="20" as="targetPoint" />
          </mxGeometry>
        </mxCell>
        <mxCell id="pG-HJHoj7xEh51rD5Gyk-49" value="&lt;font size=&quot;1&quot;&gt;&lt;span style=&quot;font-size: 18px&quot;&gt;X5&lt;/span&gt;&lt;/font&gt;" style="text;html=1;strokeColor=none;fillColor=none;align=center;verticalAlign=middle;whiteSpace=wrap;rounded=0;strokeWidth=3;fontStyle=1" parent="pG-HJHoj7xEh51rD5Gyk-54" vertex="1">
          <mxGeometry x="19.999999999999886" y="90" width="40" height="20" as="geometry" />
        </mxCell>
        <mxCell id="pG-HJHoj7xEh51rD5Gyk-50" value="&lt;font style=&quot;font-size: 16px&quot;&gt;CaptVision&lt;br&gt;&lt;/font&gt;" style="text;html=1;strokeColor=none;fillColor=none;align=left;verticalAlign=middle;whiteSpace=wrap;rounded=0;strokeWidth=3;fontStyle=1" parent="pG-HJHoj7xEh51rD5Gyk-54" vertex="1">
          <mxGeometry x="92.99999999999989" y="10" width="236" height="20" as="geometry" />
        </mxCell>
        <mxCell id="pG-HJHoj7xEh51rD5Gyk-51" value="" style="endArrow=none;html=1;strokeWidth=3;fontStyle=1" parent="pG-HJHoj7xEh51rD5Gyk-54" edge="1">
          <mxGeometry width="50" height="50" relative="1" as="geometry">
            <mxPoint x="79.99999999999989" y="99.65999999999985" as="sourcePoint" />
            <mxPoint x="129.9999999999999" y="99.65999999999985" as="targetPoint" />
          </mxGeometry>
        </mxCell>
        <mxCell id="pG-HJHoj7xEh51rD5Gyk-52" value="&lt;font style=&quot;font-size: 16px&quot;&gt;Convoyeur 3&lt;/font&gt;" style="text;html=1;strokeColor=none;fillColor=none;align=left;verticalAlign=middle;whiteSpace=wrap;rounded=0;strokeWidth=3;fontStyle=1" parent="pG-HJHoj7xEh51rD5Gyk-54" vertex="1">
          <mxGeometry x="139.9999999999999" y="90" width="236" height="20" as="geometry" />
        </mxCell>
        <mxCell id="uFdm-P2WvE3M775zOYVF-2" value="" style="rounded=0;whiteSpace=wrap;html=1;fillColor=none;gradientColor=none;strokeWidth=3;fontStyle=1" parent="pG-HJHoj7xEh51rD5Gyk-54" vertex="1">
          <mxGeometry x="130" y="80" width="120" height="40" as="geometry" />
        </mxCell>
        <mxCell id="l0feJrEmPDSzG2131Ykb-2" value="&lt;font style=&quot;font-size: 16px&quot;&gt;Convoyeur 2&lt;/font&gt;" style="text;html=1;strokeColor=none;fillColor=none;align=left;verticalAlign=middle;whiteSpace=wrap;rounded=0;strokeWidth=3;fontStyle=1" parent="pG-HJHoj7xEh51rD5Gyk-54" vertex="1">
          <mxGeometry x="260" y="90" width="140" height="20" as="geometry" />
        </mxCell>
        <mxCell id="l0feJrEmPDSzG2131Ykb-3" value="" style="rounded=0;whiteSpace=wrap;html=1;fillColor=none;gradientColor=none;strokeWidth=3;fontStyle=1" parent="pG-HJHoj7xEh51rD5Gyk-54" vertex="1">
          <mxGeometry x="250" y="80" width="120" height="40" as="geometry" />
        </mxCell>
        <mxCell id="l0feJrEmPDSzG2131Ykb-5" value="" style="rounded=0;whiteSpace=wrap;html=1;fillColor=none;gradientColor=none;strokeWidth=3;fontStyle=1" parent="1" vertex="1">
          <mxGeometry x="369" y="-60" width="161" height="40" as="geometry" />
        </mxCell>
        <mxCell id="l0feJrEmPDSzG2131Ykb-6" value="&lt;font style=&quot;font-size: 16px&quot;&gt;BandeEjecteurVert&lt;/font&gt;" style="text;html=1;strokeColor=none;fillColor=none;align=left;verticalAlign=middle;whiteSpace=wrap;rounded=0;strokeWidth=3;fontStyle=1" parent="1" vertex="1">
          <mxGeometry x="379" y="-50" width="100" height="20" as="geometry" />
        </mxCell>
        <mxCell id="l0feJrEmPDSzG2131Ykb-9" value="" style="rounded=0;whiteSpace=wrap;html=1;fillColor=none;gradientColor=none;strokeWidth=3;fontStyle=1" parent="1" vertex="1">
          <mxGeometry x="9" y="100" width="120" height="40" as="geometry" />
        </mxCell>
        <mxCell id="l0feJrEmPDSzG2131Ykb-10" value="&lt;font style=&quot;font-size: 16px&quot;&gt;EjecteurVert&lt;/font&gt;" style="text;html=1;strokeColor=none;fillColor=none;align=left;verticalAlign=middle;whiteSpace=wrap;rounded=0;strokeWidth=3;fontStyle=1" parent="1" vertex="1">
          <mxGeometry x="19" y="110" width="101" height="20" as="geometry" />
        </mxCell>
        <mxCell id="l0feJrEmPDSzG2131Ykb-11" value="" style="rounded=0;whiteSpace=wrap;html=1;fillColor=none;gradientColor=none;strokeWidth=3;fontStyle=1" parent="1" vertex="1">
          <mxGeometry x="129" y="100" width="161" height="40" as="geometry" />
        </mxCell>
        <mxCell id="l0feJrEmPDSzG2131Ykb-12" value="&lt;font style=&quot;font-size: 16px&quot;&gt;BandeEjecteurVert&lt;/font&gt;" style="text;html=1;strokeColor=none;fillColor=none;align=left;verticalAlign=middle;whiteSpace=wrap;rounded=0;strokeWidth=3;fontStyle=1" parent="1" vertex="1">
          <mxGeometry x="139" y="110" width="141" height="20" as="geometry" />
        </mxCell>
        <mxCell id="l0feJrEmPDSzG2131Ykb-15" value="&lt;span style=&quot;font-size: 16px&quot;&gt;if (CompteurPiecevert % 3 = 0)&lt;/span&gt;" style="text;html=1;strokeColor=none;fillColor=none;align=left;verticalAlign=middle;whiteSpace=wrap;rounded=0;strokeWidth=3;fontStyle=1" parent="1" vertex="1">
          <mxGeometry x="-228" y="230" width="268" height="20" as="geometry" />
        </mxCell>
        <mxCell id="l0feJrEmPDSzG2131Ykb-18" value="" style="endArrow=none;html=1;strokeWidth=3;fontStyle=1" parent="1" edge="1">
          <mxGeometry width="50" height="50" relative="1" as="geometry">
            <mxPoint x="169" y="400" as="sourcePoint" />
            <mxPoint x="229" y="400" as="targetPoint" />
          </mxGeometry>
        </mxCell>
        <mxCell id="l0feJrEmPDSzG2131Ykb-21" value="&lt;span style=&quot;font-family: monospace ; font-size: 0px&quot;&gt;%3CmxGraphModel%3E%3Croot%3E%3CmxCell%20id%3D%220%22%2F%3E%3CmxCell%20id%3D%221%22%20parent%3D%220%22%2F%3E%3CmxCell%20id%3D%222%22%20value%3D%22%26lt%3Bspan%20style%3D%26quot%3Bfont-size%3A%2016px%26quot%3B%26gt%3BCompteurPiecevert%20%2B%2B%26lt%3B%2Fspan%26gt%3B%22%20style%3D%22text%3Bhtml%3D1%3BstrokeColor%3Dnone%3BfillColor%3Dnone%3Balign%3Dleft%3BverticalAlign%3Dmiddle%3BwhiteSpace%3Dwrap%3Brounded%3D0%3B%22%20vertex%3D%221%22%20parent%3D%221%22%3E%3CmxGeometry%20x%3D%22-10%22%20y%3D%22310%22%20width%3D%22170%22%20height%3D%2220%22%20as%3D%22geometry%22%2F%3E%3C%2FmxCell%3E%3C%2Froot%3E%3C%2FmxGraphModel%3E&lt;/span&gt;" style="text;html=1;strokeColor=none;fillColor=none;align=left;verticalAlign=middle;whiteSpace=wrap;rounded=0;strokeWidth=3;fontStyle=1" parent="1" vertex="1">
          <mxGeometry x="252" y="390" width="188" height="20" as="geometry" />
        </mxCell>
        <mxCell id="l0feJrEmPDSzG2131Ykb-28" value="&lt;span style=&quot;font-size: 16px&quot;&gt;if (CompteurPiecevert % 3 != 0)&lt;/span&gt;" style="text;html=1;strokeColor=none;fillColor=none;align=left;verticalAlign=middle;whiteSpace=wrap;rounded=0;strokeWidth=3;fontStyle=1" parent="1" vertex="1">
          <mxGeometry x="239" y="390" width="261" height="20" as="geometry" />
        </mxCell>
        <mxCell id="l0feJrEmPDSzG2131Ykb-29" value="" style="rounded=0;whiteSpace=wrap;html=1;fillColor=none;gradientColor=none;strokeWidth=3;fontStyle=1" parent="1" vertex="1">
          <mxGeometry x="290" y="100" width="180" height="40" as="geometry" />
        </mxCell>
        <mxCell id="l0feJrEmPDSzG2131Ykb-30" value="&lt;span style=&quot;font-size: 16px&quot;&gt;CompteurPiecevert ++&lt;/span&gt;" style="text;html=1;strokeColor=none;fillColor=none;align=left;verticalAlign=middle;whiteSpace=wrap;rounded=0;strokeWidth=3;fontStyle=1" parent="1" vertex="1">
          <mxGeometry x="290" y="110" width="190" height="20" as="geometry" />
        </mxCell>
        <mxCell id="l0feJrEmPDSzG2131Ykb-31" value="&lt;span style=&quot;font-family: monospace ; font-size: 0px&quot;&gt;%3CmxGraphModel%3E%3Croot%3E%3CmxCell%20id%3D%220%22%2F%3E%3CmxCell%20id%3D%221%22%20parent%3D%220%22%2F%3E%3CmxCell%20id%3D%222%22%20value%3D%22%22%20style%3D%22endArrow%3Dnone%3Bhtml%3D1%3BstrokeWidth%3D1%3B%22%20edge%3D%221%22%20parent%3D%221%22%3E%3CmxGeometry%20width%3D%2250%22%20height%3D%2250%22%20relative%3D%221%22%20as%3D%22geometry%22%3E%3CmxPoint%20x%3D%22-1%22%20y%3D%22-40.340000000000146%22%20as%3D%22sourcePoint%22%2F%3E%3CmxPoint%20x%3D%2249%22%20y%3D%22-40.340000000000146%22%20as%3D%22targetPoint%22%2F%3E%3C%2FmxGeometry%3E%3C%2FmxCell%3E%3C%2Froot%3E%3C%2FmxGraphModel%3E&lt;/span&gt;" style="text;html=1;align=center;verticalAlign=middle;resizable=0;points=[];autosize=1;strokeWidth=3;fontStyle=1" parent="1" vertex="1">
          <mxGeometry x="-1" y="28" width="20" height="20" as="geometry" />
        </mxCell>
        <mxCell id="l0feJrEmPDSzG2131Ykb-33" value="" style="endArrow=none;html=1;strokeWidth=3;fontStyle=1" parent="1" edge="1">
          <mxGeometry width="50" height="50" relative="1" as="geometry">
            <mxPoint x="-42" y="119.70999999999987" as="sourcePoint" />
            <mxPoint x="8" y="119.70999999999987" as="targetPoint" />
          </mxGeometry>
        </mxCell>
        <mxCell id="DkKpa7CR5oT2J0YE4CzM-1" value="" style="endArrow=none;html=1;entryX=1;entryY=0;entryDx=0;entryDy=0;strokeWidth=3;fontStyle=1" parent="1" target="l0feJrEmPDSzG2131Ykb-10" edge="1">
          <mxGeometry width="50" height="50" relative="1" as="geometry">
            <mxPoint x="20" y="110" as="sourcePoint" />
            <mxPoint x="82" y="110" as="targetPoint" />
          </mxGeometry>
        </mxCell>
        <mxCell id="DkKpa7CR5oT2J0YE4CzM-2" value="" style="endArrow=none;html=1;strokeWidth=3;fontStyle=1" parent="1" target="l0feJrEmPDSzG2131Ykb-12" edge="1">
          <mxGeometry width="50" height="50" relative="1" as="geometry">
            <mxPoint x="148" y="110" as="sourcePoint" />
            <mxPoint x="198" y="60" as="targetPoint" />
          </mxGeometry>
        </mxCell>
        <mxCell id="DkKpa7CR5oT2J0YE4CzM-3" value="" style="endArrow=none;html=1;exitX=0;exitY=0;exitDx=0;exitDy=0;entryX=0.957;entryY=-0.014;entryDx=0;entryDy=0;entryPerimeter=0;strokeWidth=3;fontStyle=1" parent="1" source="l0feJrEmPDSzG2131Ykb-12" target="l0feJrEmPDSzG2131Ykb-12" edge="1">
          <mxGeometry width="50" height="50" relative="1" as="geometry">
            <mxPoint x="160" y="130" as="sourcePoint" />
            <mxPoint x="210" y="80" as="targetPoint" />
          </mxGeometry>
        </mxCell>
        <mxCell id="DkKpa7CR5oT2J0YE4CzM-5" value="&lt;span style=&quot;font-size: 16px&quot;&gt;%T7s&lt;/span&gt;" style="text;html=1;strokeColor=none;fillColor=none;align=left;verticalAlign=middle;whiteSpace=wrap;rounded=0;strokeWidth=3;fontStyle=1" parent="1" vertex="1">
          <mxGeometry x="-12" y="28" width="98" height="20" as="geometry" />
        </mxCell>
        <mxCell id="DkKpa7CR5oT2J0YE4CzM-8" value="" style="rounded=0;whiteSpace=wrap;html=1;fillColor=none;gradientColor=none;strokeWidth=3;fontStyle=1" parent="1" vertex="1">
          <mxGeometry x="9.500000000000114" y="-60" width="120" height="40" as="geometry" />
        </mxCell>
        <mxCell id="DkKpa7CR5oT2J0YE4CzM-9" value="&lt;font style=&quot;font-size: 16px&quot;&gt;Convoyeur 2&lt;/font&gt;" style="text;html=1;strokeColor=none;fillColor=none;align=left;verticalAlign=middle;whiteSpace=wrap;rounded=0;strokeWidth=3;fontStyle=1" parent="1" vertex="1">
          <mxGeometry x="20.5" y="-50" width="100" height="20" as="geometry" />
        </mxCell>
        <mxCell id="T1GBDXfQyIZ9a4IVXnBp-2" value="&lt;span style=&quot;font-size: 16px&quot;&gt;if (CompteurPiecebleu % 3 != 0)&lt;/span&gt;" style="text;html=1;strokeColor=none;fillColor=none;align=left;verticalAlign=middle;whiteSpace=wrap;rounded=0;strokeWidth=3;fontStyle=1" parent="1" vertex="1">
          <mxGeometry x="1140" y="390" width="250" height="20" as="geometry" />
        </mxCell>
        <mxCell id="T1GBDXfQyIZ9a4IVXnBp-4" value="" style="rounded=0;whiteSpace=wrap;html=1;fillColor=none;gradientColor=none;strokeWidth=3;fontStyle=1" parent="1" vertex="1">
          <mxGeometry x="970" y="-60" width="120" height="40" as="geometry" />
        </mxCell>
        <mxCell id="T1GBDXfQyIZ9a4IVXnBp-5" value="&lt;font style=&quot;font-size: 16px&quot;&gt;Convoyeur 3&lt;/font&gt;" style="text;html=1;strokeColor=none;fillColor=none;align=left;verticalAlign=middle;whiteSpace=wrap;rounded=0;strokeWidth=3;fontStyle=1" parent="1" vertex="1">
          <mxGeometry x="981" y="-50" width="100" height="20" as="geometry" />
        </mxCell>
        <mxCell id="T1GBDXfQyIZ9a4IVXnBp-6" value="" style="rounded=0;whiteSpace=wrap;html=1;fillColor=none;gradientColor=none;strokeWidth=3;fontStyle=1" parent="1" vertex="1">
          <mxGeometry x="1090" y="-60" width="120" height="40" as="geometry" />
        </mxCell>
        <mxCell id="T1GBDXfQyIZ9a4IVXnBp-7" value="&lt;font style=&quot;font-size: 16px&quot;&gt;EjecteurBleu&lt;/font&gt;" style="text;html=1;strokeColor=none;fillColor=none;align=left;verticalAlign=middle;whiteSpace=wrap;rounded=0;strokeWidth=3;fontStyle=1" parent="1" vertex="1">
          <mxGeometry x="1100" y="-50" width="100" height="20" as="geometry" />
        </mxCell>
        <mxCell id="T1GBDXfQyIZ9a4IVXnBp-8" value="" style="rounded=0;whiteSpace=wrap;html=1;fillColor=none;gradientColor=none;strokeWidth=3;fontStyle=1" parent="1" vertex="1">
          <mxGeometry x="1210" y="-60" width="170" height="40" as="geometry" />
        </mxCell>
        <mxCell id="T1GBDXfQyIZ9a4IVXnBp-9" value="&lt;font style=&quot;font-size: 16px&quot;&gt;BandeEjecteurBleu&lt;/font&gt;" style="text;html=1;strokeColor=none;fillColor=none;align=left;verticalAlign=middle;whiteSpace=wrap;rounded=0;strokeWidth=3;fontStyle=1" parent="1" vertex="1">
          <mxGeometry x="1220" y="-50" width="100" height="20" as="geometry" />
        </mxCell>
        <mxCell id="T1GBDXfQyIZ9a4IVXnBp-10" value="" style="rounded=0;whiteSpace=wrap;html=1;fillColor=none;gradientColor=none;strokeWidth=3;fontStyle=1" parent="1" vertex="1">
          <mxGeometry x="850" y="100" width="120" height="40" as="geometry" />
        </mxCell>
        <mxCell id="T1GBDXfQyIZ9a4IVXnBp-11" value="&lt;font style=&quot;font-size: 16px&quot;&gt;EjecteurBleu&lt;/font&gt;" style="text;html=1;strokeColor=none;fillColor=none;align=left;verticalAlign=middle;whiteSpace=wrap;rounded=0;strokeWidth=3;fontStyle=1" parent="1" vertex="1">
          <mxGeometry x="860" y="110" width="101" height="20" as="geometry" />
        </mxCell>
        <mxCell id="T1GBDXfQyIZ9a4IVXnBp-12" value="" style="rounded=0;whiteSpace=wrap;html=1;fillColor=none;gradientColor=none;strokeWidth=3;fontStyle=1" parent="1" vertex="1">
          <mxGeometry x="970" y="100" width="160" height="40" as="geometry" />
        </mxCell>
        <mxCell id="T1GBDXfQyIZ9a4IVXnBp-13" value="&lt;font style=&quot;font-size: 16px&quot;&gt;BandeEjecteurBleu&lt;/font&gt;" style="text;html=1;strokeColor=none;fillColor=none;align=left;verticalAlign=middle;whiteSpace=wrap;rounded=0;strokeWidth=3;fontStyle=1" parent="1" vertex="1">
          <mxGeometry x="980" y="110" width="141" height="20" as="geometry" />
        </mxCell>
        <mxCell id="T1GBDXfQyIZ9a4IVXnBp-14" value="" style="rounded=0;whiteSpace=wrap;html=1;fillColor=none;gradientColor=none;strokeWidth=3;fontStyle=1" parent="1" vertex="1">
          <mxGeometry x="1130" y="100" width="189" height="40" as="geometry" />
        </mxCell>
        <mxCell id="T1GBDXfQyIZ9a4IVXnBp-15" value="&lt;span style=&quot;font-size: 16px&quot;&gt;CompteurPiecebleu ++&lt;/span&gt;" style="text;html=1;strokeColor=none;fillColor=none;align=left;verticalAlign=middle;whiteSpace=wrap;rounded=0;strokeWidth=3;fontStyle=1" parent="1" vertex="1">
          <mxGeometry x="1130" y="110" width="189" height="20" as="geometry" />
        </mxCell>
        <mxCell id="T1GBDXfQyIZ9a4IVXnBp-16" value="&lt;span style=&quot;font-family: monospace ; font-size: 0px&quot;&gt;%3CmxGraphModel%3E%3Croot%3E%3CmxCell%20id%3D%220%22%2F%3E%3CmxCell%20id%3D%221%22%20parent%3D%220%22%2F%3E%3CmxCell%20id%3D%222%22%20value%3D%22%22%20style%3D%22endArrow%3Dnone%3Bhtml%3D1%3BstrokeWidth%3D1%3B%22%20edge%3D%221%22%20parent%3D%221%22%3E%3CmxGeometry%20width%3D%2250%22%20height%3D%2250%22%20relative%3D%221%22%20as%3D%22geometry%22%3E%3CmxPoint%20x%3D%22-1%22%20y%3D%22-40.340000000000146%22%20as%3D%22sourcePoint%22%2F%3E%3CmxPoint%20x%3D%2249%22%20y%3D%22-40.340000000000146%22%20as%3D%22targetPoint%22%2F%3E%3C%2FmxGeometry%3E%3C%2FmxCell%3E%3C%2Froot%3E%3C%2FmxGraphModel%3E&lt;/span&gt;" style="text;html=1;align=center;verticalAlign=middle;resizable=0;points=[];autosize=1;strokeWidth=3;fontStyle=1" parent="1" vertex="1">
          <mxGeometry x="840" y="28" width="20" height="20" as="geometry" />
        </mxCell>
        <mxCell id="T1GBDXfQyIZ9a4IVXnBp-17" value="" style="endArrow=none;html=1;strokeWidth=3;fontStyle=1" parent="1" edge="1">
          <mxGeometry width="50" height="50" relative="1" as="geometry">
            <mxPoint x="799" y="119.71000000000004" as="sourcePoint" />
            <mxPoint x="849" y="119.71000000000004" as="targetPoint" />
          </mxGeometry>
        </mxCell>
        <mxCell id="T1GBDXfQyIZ9a4IVXnBp-18" value="" style="endArrow=none;html=1;entryX=1;entryY=0;entryDx=0;entryDy=0;strokeWidth=3;fontStyle=1" parent="1" target="T1GBDXfQyIZ9a4IVXnBp-11" edge="1">
          <mxGeometry width="50" height="50" relative="1" as="geometry">
            <mxPoint x="861" y="110" as="sourcePoint" />
            <mxPoint x="923" y="110" as="targetPoint" />
          </mxGeometry>
        </mxCell>
        <mxCell id="T1GBDXfQyIZ9a4IVXnBp-19" value="" style="endArrow=none;html=1;strokeWidth=3;fontStyle=1" parent="1" target="T1GBDXfQyIZ9a4IVXnBp-13" edge="1">
          <mxGeometry width="50" height="50" relative="1" as="geometry">
            <mxPoint x="989" y="110" as="sourcePoint" />
            <mxPoint x="1039" y="60" as="targetPoint" />
          </mxGeometry>
        </mxCell>
        <mxCell id="T1GBDXfQyIZ9a4IVXnBp-20" value="" style="endArrow=none;html=1;exitX=0;exitY=0;exitDx=0;exitDy=0;entryX=0.957;entryY=-0.014;entryDx=0;entryDy=0;entryPerimeter=0;strokeWidth=3;fontStyle=1" parent="1" source="T1GBDXfQyIZ9a4IVXnBp-13" target="T1GBDXfQyIZ9a4IVXnBp-13" edge="1">
          <mxGeometry width="50" height="50" relative="1" as="geometry">
            <mxPoint x="1001" y="130" as="sourcePoint" />
            <mxPoint x="1051" y="80" as="targetPoint" />
          </mxGeometry>
        </mxCell>
        <mxCell id="T1GBDXfQyIZ9a4IVXnBp-21" value="&lt;span style=&quot;font-size: 16px&quot;&gt;%T10s&lt;/span&gt;" style="text;html=1;strokeColor=none;fillColor=none;align=left;verticalAlign=middle;whiteSpace=wrap;rounded=0;strokeWidth=3;fontStyle=1" parent="1" vertex="1">
          <mxGeometry x="829" y="28" width="98" height="20" as="geometry" />
        </mxCell>
        <mxCell id="T1GBDXfQyIZ9a4IVXnBp-22" value="" style="rounded=0;whiteSpace=wrap;html=1;fillColor=none;gradientColor=none;strokeWidth=3;fontStyle=1" parent="1" vertex="1">
          <mxGeometry x="850.5000000000001" y="-60" width="120" height="40" as="geometry" />
        </mxCell>
        <mxCell id="T1GBDXfQyIZ9a4IVXnBp-23" value="&lt;font style=&quot;font-size: 16px&quot;&gt;Convoyeur 2&lt;/font&gt;" style="text;html=1;strokeColor=none;fillColor=none;align=left;verticalAlign=middle;whiteSpace=wrap;rounded=0;strokeWidth=3;fontStyle=1" parent="1" vertex="1">
          <mxGeometry x="861.5" y="-50" width="100" height="20" as="geometry" />
        </mxCell>
        <mxCell id="T1GBDXfQyIZ9a4IVXnBp-24" value="" style="endArrow=none;html=1;entryX=0;entryY=0.5;entryDx=0;entryDy=0;exitX=1;exitY=0.5;exitDx=0;exitDy=0;strokeWidth=3;fontStyle=1" parent="1" source="pG-HJHoj7xEh51rD5Gyk-71" target="T1GBDXfQyIZ9a4IVXnBp-22" edge="1">
          <mxGeometry width="50" height="50" relative="1" as="geometry">
            <mxPoint x="690" y="70" as="sourcePoint" />
            <mxPoint x="740" y="20" as="targetPoint" />
          </mxGeometry>
        </mxCell>
        <mxCell id="T1GBDXfQyIZ9a4IVXnBp-27" value="&lt;span style=&quot;font-family: monospace ; font-size: 0px&quot;&gt;%3CmxGraphModel%3E%3Croot%3E%3CmxCell%20id%3D%220%22%2F%3E%3CmxCell%20id%3D%221%22%20parent%3D%220%22%2F%3E%3CmxCell%20id%3D%222%22%20value%3D%22%26lt%3Bspan%20style%3D%26quot%3Bfont-size%3A%2016px%26quot%3B%26gt%3BCompteurPiecevert%20%2B%2B%26lt%3B%2Fspan%26gt%3B%22%20style%3D%22text%3Bhtml%3D1%3BstrokeColor%3Dnone%3BfillColor%3Dnone%3Balign%3Dleft%3BverticalAlign%3Dmiddle%3BwhiteSpace%3Dwrap%3Brounded%3D0%3B%22%20vertex%3D%221%22%20parent%3D%221%22%3E%3CmxGeometry%20x%3D%22-10%22%20y%3D%22310%22%20width%3D%22170%22%20height%3D%2220%22%20as%3D%22geometry%22%2F%3E%3C%2FmxCell%3E%3C%2Froot%3E%3C%2FmxGraphModel%3E&lt;/span&gt;" style="text;html=1;strokeColor=none;fillColor=none;align=left;verticalAlign=middle;whiteSpace=wrap;rounded=0;strokeWidth=3;fontStyle=1" parent="1" vertex="1">
          <mxGeometry x="652" y="230" width="188" height="20" as="geometry" />
        </mxCell>
        <mxCell id="T1GBDXfQyIZ9a4IVXnBp-28" value="&lt;font style=&quot;font-size: 16px&quot;&gt;CaptBoiteBleue&lt;br&gt;&lt;/font&gt;" style="text;html=1;strokeColor=none;fillColor=none;align=left;verticalAlign=middle;whiteSpace=wrap;rounded=0;strokeWidth=3;fontStyle=1" parent="1" vertex="1">
          <mxGeometry x="652" y="390" width="128" height="20" as="geometry" />
        </mxCell>
        <mxCell id="T1GBDXfQyIZ9a4IVXnBp-29" value="" style="rounded=0;whiteSpace=wrap;html=1;fillColor=none;gradientColor=none;strokeWidth=3;fontStyle=1" parent="1" vertex="1">
          <mxGeometry x="680" y="300" width="170" height="40" as="geometry" />
        </mxCell>
        <mxCell id="T1GBDXfQyIZ9a4IVXnBp-30" value="&lt;font style=&quot;font-size: 16px&quot;&gt;TableRouleauxBleu&lt;/font&gt;" style="text;html=1;strokeColor=none;fillColor=none;align=left;verticalAlign=middle;whiteSpace=wrap;rounded=0;strokeWidth=3;fontStyle=1" parent="1" vertex="1">
          <mxGeometry x="687" y="310" width="140" height="20" as="geometry" />
        </mxCell>
        <mxCell id="T1GBDXfQyIZ9a4IVXnBp-31" value="&lt;span style=&quot;font-size: 16px&quot;&gt;if (CompteurPiecebleu % 3 = 0)&lt;/span&gt;" style="text;html=1;strokeColor=none;fillColor=none;align=left;verticalAlign=middle;whiteSpace=wrap;rounded=0;strokeWidth=3;fontStyle=1" parent="1" vertex="1">
          <mxGeometry x="652" y="230" width="248" height="20" as="geometry" />
        </mxCell>
        <mxCell id="iWyO83kqLtPELv0Pru8T-3" value="" style="whiteSpace=wrap;html=1;aspect=fixed;strokeWidth=3;fontStyle=1" vertex="1" parent="1">
          <mxGeometry x="320" y="680" width="80" height="80" as="geometry" />
        </mxCell>
        <mxCell id="iWyO83kqLtPELv0Pru8T-4" value="&lt;font size=&quot;1&quot;&gt;&lt;span style=&quot;font-size: 18px&quot;&gt;X6&lt;/span&gt;&lt;/font&gt;" style="text;html=1;strokeColor=none;fillColor=none;align=center;verticalAlign=middle;whiteSpace=wrap;rounded=0;strokeWidth=3;fontStyle=1" vertex="1" parent="1">
          <mxGeometry x="340" y="710" width="40" height="20" as="geometry" />
        </mxCell>
        <mxCell id="iWyO83kqLtPELv0Pru8T-8" value="" style="endArrow=none;html=1;strokeWidth=3;fontStyle=1" edge="1" parent="1">
          <mxGeometry width="50" height="50" relative="1" as="geometry">
            <mxPoint x="200" y="800" as="sourcePoint" />
            <mxPoint x="520" y="800" as="targetPoint" />
          </mxGeometry>
        </mxCell>
        <mxCell id="iWyO83kqLtPELv0Pru8T-9" value="&lt;font style=&quot;font-size: 16px&quot;&gt;Etape de transition&lt;br&gt;&lt;/font&gt;" style="text;html=1;strokeColor=none;fillColor=none;align=left;verticalAlign=middle;whiteSpace=wrap;rounded=0;strokeWidth=3;fontStyle=1" vertex="1" parent="1">
          <mxGeometry x="422" y="710" width="158" height="20" as="geometry" />
        </mxCell>
        <mxCell id="iWyO83kqLtPELv0Pru8T-13" value="" style="endArrow=none;html=1;strokeWidth=3;fontStyle=1" edge="1" parent="1">
          <mxGeometry width="50" height="50" relative="1" as="geometry">
            <mxPoint x="360" y="800" as="sourcePoint" />
            <mxPoint x="360" y="760" as="targetPoint" />
          </mxGeometry>
        </mxCell>
        <mxCell id="iWyO83kqLtPELv0Pru8T-15" value="" style="endArrow=none;html=1;strokeWidth=3;fontStyle=1" edge="1" parent="1">
          <mxGeometry width="50" height="50" relative="1" as="geometry">
            <mxPoint x="240" y="880" as="sourcePoint" />
            <mxPoint x="240" y="800" as="targetPoint" />
          </mxGeometry>
        </mxCell>
        <mxCell id="iWyO83kqLtPELv0Pru8T-16" value="" style="endArrow=none;html=1;strokeWidth=3;fontStyle=1" edge="1" parent="1">
          <mxGeometry width="50" height="50" relative="1" as="geometry">
            <mxPoint x="480" y="880" as="sourcePoint" />
            <mxPoint x="480" y="800" as="targetPoint" />
          </mxGeometry>
        </mxCell>
        <mxCell id="iWyO83kqLtPELv0Pru8T-17" value="" style="endArrow=none;html=1;strokeWidth=3;fontStyle=1" edge="1" parent="1">
          <mxGeometry width="50" height="50" relative="1" as="geometry">
            <mxPoint x="210" y="840" as="sourcePoint" />
            <mxPoint x="270" y="840" as="targetPoint" />
          </mxGeometry>
        </mxCell>
        <mxCell id="iWyO83kqLtPELv0Pru8T-18" value="" style="endArrow=none;html=1;strokeWidth=3;fontStyle=1" edge="1" parent="1">
          <mxGeometry width="50" height="50" relative="1" as="geometry">
            <mxPoint x="450" y="840" as="sourcePoint" />
            <mxPoint x="510" y="840" as="targetPoint" />
          </mxGeometry>
        </mxCell>
        <mxCell id="iWyO83kqLtPELv0Pru8T-19" value="" style="endArrow=none;html=1;strokeWidth=3;fontStyle=1" edge="1" parent="1">
          <mxGeometry width="50" height="50" relative="1" as="geometry">
            <mxPoint x="-440" y="880" as="sourcePoint" />
            <mxPoint x="240" y="880" as="targetPoint" />
          </mxGeometry>
        </mxCell>
        <mxCell id="iWyO83kqLtPELv0Pru8T-20" value="" style="endArrow=none;html=1;strokeWidth=3;fontStyle=1" edge="1" parent="1">
          <mxGeometry width="50" height="50" relative="1" as="geometry">
            <mxPoint x="480" y="880" as="sourcePoint" />
            <mxPoint x="1400" y="880" as="targetPoint" />
          </mxGeometry>
        </mxCell>
        <mxCell id="iWyO83kqLtPELv0Pru8T-22" value="" style="endArrow=none;html=1;strokeWidth=3;fontStyle=1" edge="1" parent="1">
          <mxGeometry width="50" height="50" relative="1" as="geometry">
            <mxPoint x="1400" y="880" as="sourcePoint" />
            <mxPoint x="1400" y="-780" as="targetPoint" />
          </mxGeometry>
        </mxCell>
        <mxCell id="iWyO83kqLtPELv0Pru8T-23" value="" style="endArrow=none;html=1;strokeWidth=3;fontStyle=1" edge="1" parent="1">
          <mxGeometry width="50" height="50" relative="1" as="geometry">
            <mxPoint x="1380" y="-400" as="sourcePoint" />
            <mxPoint x="1400" y="-440" as="targetPoint" />
          </mxGeometry>
        </mxCell>
        <mxCell id="iWyO83kqLtPELv0Pru8T-24" value="" style="endArrow=none;html=1;strokeWidth=3;fontStyle=1" edge="1" parent="1">
          <mxGeometry width="50" height="50" relative="1" as="geometry">
            <mxPoint x="1420" y="-400" as="sourcePoint" />
            <mxPoint x="1400" y="-440" as="targetPoint" />
          </mxGeometry>
        </mxCell>
        <mxCell id="iWyO83kqLtPELv0Pru8T-26" value="" style="endArrow=none;html=1;strokeWidth=3;fontStyle=1" edge="1" parent="1">
          <mxGeometry width="50" height="50" relative="1" as="geometry">
            <mxPoint x="360" y="-780" as="sourcePoint" />
            <mxPoint x="1400" y="-780" as="targetPoint" />
          </mxGeometry>
        </mxCell>
        <mxCell id="iWyO83kqLtPELv0Pru8T-27" value="&lt;font style=&quot;font-size: 16px&quot;&gt;A1 active&lt;br&gt;&lt;/font&gt;" style="text;html=1;strokeColor=none;fillColor=none;align=left;verticalAlign=middle;whiteSpace=wrap;rounded=0;strokeWidth=3;fontStyle=1" vertex="1" parent="1">
          <mxGeometry x="281" y="830" width="158" height="20" as="geometry" />
        </mxCell>
        <mxCell id="iWyO83kqLtPELv0Pru8T-28" value="&lt;font style=&quot;font-size: 16px&quot;&gt;F1 active&lt;br&gt;&lt;/font&gt;" style="text;html=1;strokeColor=none;fillColor=none;align=left;verticalAlign=middle;whiteSpace=wrap;rounded=0;strokeWidth=3;fontStyle=1" vertex="1" parent="1">
          <mxGeometry x="522" y="830" width="158" height="20" as="geometry" />
        </mxCell>
        <mxCell id="iWyO83kqLtPELv0Pru8T-31" value="" style="whiteSpace=wrap;html=1;aspect=fixed;strokeWidth=3;fontStyle=1" vertex="1" parent="1">
          <mxGeometry x="-321" y="440" width="80" height="80" as="geometry" />
        </mxCell>
        <mxCell id="iWyO83kqLtPELv0Pru8T-32" value="&lt;font size=&quot;1&quot;&gt;&lt;span style=&quot;font-size: 18px&quot;&gt;X13&lt;/span&gt;&lt;/font&gt;" style="text;html=1;strokeColor=none;fillColor=none;align=center;verticalAlign=middle;whiteSpace=wrap;rounded=0;strokeWidth=3;fontStyle=1" vertex="1" parent="1">
          <mxGeometry x="-301" y="470" width="40" height="20" as="geometry" />
        </mxCell>
        <mxCell id="iWyO83kqLtPELv0Pru8T-33" value="" style="rounded=0;whiteSpace=wrap;html=1;fillColor=none;gradientColor=none;strokeWidth=3;fontStyle=1" vertex="1" parent="1">
          <mxGeometry x="-200" y="460" width="170" height="40" as="geometry" />
        </mxCell>
        <mxCell id="iWyO83kqLtPELv0Pru8T-34" value="&lt;font style=&quot;font-size: 16px&quot;&gt;EmetteurBoiteVerte&lt;/font&gt;" style="text;html=1;strokeColor=none;fillColor=none;align=left;verticalAlign=middle;whiteSpace=wrap;rounded=0;strokeWidth=3;fontStyle=1" vertex="1" parent="1">
          <mxGeometry x="-193" y="470" width="140" height="20" as="geometry" />
        </mxCell>
        <mxCell id="iWyO83kqLtPELv0Pru8T-35" value="" style="endArrow=none;html=1;strokeWidth=3;entryX=0;entryY=0.5;entryDx=0;entryDy=0;exitX=1;exitY=0.5;exitDx=0;exitDy=0;fontStyle=1" edge="1" parent="1" source="iWyO83kqLtPELv0Pru8T-31" target="iWyO83kqLtPELv0Pru8T-33">
          <mxGeometry width="50" height="50" relative="1" as="geometry">
            <mxPoint x="-241" y="479.5" as="sourcePoint" />
            <mxPoint x="-200" y="479" as="targetPoint" />
          </mxGeometry>
        </mxCell>
        <mxCell id="iWyO83kqLtPELv0Pru8T-36" value="" style="endArrow=none;html=1;strokeWidth=3;fontStyle=1" edge="1" parent="1">
          <mxGeometry width="50" height="50" relative="1" as="geometry">
            <mxPoint x="-306" y="560" as="sourcePoint" />
            <mxPoint x="-246" y="560" as="targetPoint" />
          </mxGeometry>
        </mxCell>
        <mxCell id="iWyO83kqLtPELv0Pru8T-37" value="&lt;font style=&quot;font-size: 16px&quot;&gt;%T3s&lt;br&gt;&lt;/font&gt;" style="text;html=1;strokeColor=none;fillColor=none;align=left;verticalAlign=middle;whiteSpace=wrap;rounded=0;strokeWidth=3;fontStyle=1" vertex="1" parent="1">
          <mxGeometry x="-228" y="550" width="128" height="20" as="geometry" />
        </mxCell>
        <mxCell id="iWyO83kqLtPELv0Pru8T-39" value="" style="endArrow=none;html=1;strokeWidth=3;fontStyle=1" edge="1" parent="1">
          <mxGeometry width="50" height="50" relative="1" as="geometry">
            <mxPoint x="-41" y="640" as="sourcePoint" />
            <mxPoint x="-41" y="600" as="targetPoint" />
          </mxGeometry>
        </mxCell>
        <mxCell id="iWyO83kqLtPELv0Pru8T-40" value="" style="endArrow=none;html=1;entryX=0.5;entryY=1;entryDx=0;entryDy=0;strokeWidth=3;fontStyle=1" edge="1" parent="1" target="iWyO83kqLtPELv0Pru8T-31">
          <mxGeometry width="50" height="50" relative="1" as="geometry">
            <mxPoint x="-280" y="600" as="sourcePoint" />
            <mxPoint x="260" y="500" as="targetPoint" />
          </mxGeometry>
        </mxCell>
        <mxCell id="iWyO83kqLtPELv0Pru8T-41" value="" style="endArrow=none;html=1;strokeWidth=3;fontStyle=1" edge="1" parent="1">
          <mxGeometry width="50" height="50" relative="1" as="geometry">
            <mxPoint x="827" y="640" as="sourcePoint" />
            <mxPoint x="827" y="600" as="targetPoint" />
          </mxGeometry>
        </mxCell>
        <mxCell id="iWyO83kqLtPELv0Pru8T-42" value="" style="endArrow=none;html=1;entryX=0.5;entryY=1;entryDx=0;entryDy=0;strokeWidth=3;fontStyle=1" edge="1" parent="1" target="Xxqxk4Q40JCaoxF1TCv4-61">
          <mxGeometry width="50" height="50" relative="1" as="geometry">
            <mxPoint x="600" y="600" as="sourcePoint" />
            <mxPoint x="690" y="620" as="targetPoint" />
          </mxGeometry>
        </mxCell>
      </root>
    </mxGraphModel>
  </diagram>
</mxfile>
